<?xml version="1.0" encoding="utf-8"?>
<!-- Generator: Adobe Illustrator 16.0.4, SVG Export Plug-In . SVG Version: 6.00 Build 0)  -->
<!DOCTYPE svg PUBLIC "-//W3C//DTD SVG 1.1//EN" "http://www.w3.org/Graphics/SVG/1.1/DTD/svg11.dtd">
<svg version="1.1" id="Layer_1" xmlns="http://www.w3.org/2000/svg" xmlns:xlink="http://www.w3.org/1999/xlink" x="0px" y="0px"
	 width="44.565px" height="44.188px" viewBox="0 0 44.565 44.188" enable-background="new 0 0 44.565 44.188" xml:space="preserve">
<path fill="#58595B" d="M12.155,10.043c0,1.11-0.906,2.009-2.026,2.009H2.026C0.906,12.052,0,11.153,0,10.043V2.009
	C0,0.898,0.906,0,2.026,0h8.103c1.12,0,2.026,0.898,2.026,2.009V10.043z"/>
<path fill="#58595B" d="M28.359,10.043c0,1.11-0.905,2.009-2.025,2.009h-8.102c-1.12,0-2.026-0.898-2.026-2.009V2.009
	c0-1.11,0.906-2.009,2.026-2.009h8.102c1.12,0,2.025,0.898,2.025,2.009V10.043z"/>
<path fill="#58595B" d="M44.565,10.043c0,1.11-0.905,2.009-2.025,2.009h-8.103c-1.12,0-2.026-0.898-2.026-2.009V2.009
	c0-1.11,0.906-2.009,2.026-2.009h8.103c1.12,0,2.025,0.898,2.025,2.009V10.043z"/>
<path fill="#58595B" d="M12.155,26.111c0,1.11-0.906,2.009-2.026,2.009H2.026C0.906,28.12,0,27.222,0,26.111v-8.034
	c0-1.11,0.906-2.008,2.026-2.008h8.103c1.12,0,2.026,0.898,2.026,2.008V26.111z"/>
<path fill="#58595B" d="M28.359,26.111c0,1.11-0.905,2.009-2.025,2.009h-8.102c-1.12,0-2.026-0.898-2.026-2.009v-8.034
	c0-1.11,0.906-2.008,2.026-2.008h8.102c1.12,0,2.025,0.898,2.025,2.008V26.111z"/>
<path fill="#58595B" d="M44.565,26.111c0,1.11-0.905,2.009-2.025,2.009h-8.103c-1.12,0-2.026-0.898-2.026-2.009v-8.034
	c0-1.11,0.906-2.008,2.026-2.008h8.103c1.12,0,2.025,0.898,2.025,2.008V26.111z"/>
<path fill="#58595B" d="M12.155,42.18c0,1.11-0.906,2.009-2.026,2.009H2.026C0.906,44.188,0,43.29,0,42.18v-8.034
	c0-1.11,0.906-2.008,2.026-2.008h8.103c1.12,0,2.026,0.898,2.026,2.008V42.18z"/>
<path fill="#58595B" d="M28.359,42.18c0,1.11-0.905,2.009-2.025,2.009h-8.102c-1.12,0-2.026-0.898-2.026-2.009v-8.034
	c0-1.11,0.906-2.008,2.026-2.008h8.102c1.12,0,2.025,0.898,2.025,2.008V42.18z"/>
<path fill="#58595B" d="M44.565,42.18c0,1.11-0.905,2.009-2.025,2.009h-8.103c-1.12,0-2.026-0.898-2.026-2.009v-8.034
	c0-1.11,0.906-2.008,2.026-2.008h8.103c1.12,0,2.025,0.898,2.025,2.008V42.18z"/>
</svg>
